<?xml version="1.0" encoding="UTF-8" standalone="no"?>
<svg
   xmlns:dc="http://purl.org/dc/elements/1.1/"
   xmlns:cc="http://creativecommons.org/ns#"
   xmlns:rdf="http://www.w3.org/1999/02/22-rdf-syntax-ns#"
   xmlns:svg="http://www.w3.org/2000/svg"
   xmlns="http://www.w3.org/2000/svg"
   xmlns:sodipodi="http://sodipodi.sourceforge.net/DTD/sodipodi-0.dtd"
   xmlns:inkscape="http://www.inkscape.org/namespaces/inkscape"
   version="1.1"
   x="0px"
   y="0px"
   viewBox="0 0 21.711443 25"
   xml:space="preserve"
   id="svg14"
   sodipodi:docname="quality.svg"
   width="21.711443"
   height="25"
   inkscape:version="1.0.2 (1.0.2+r75+1)"><metadata
     id="metadata20"><rdf:RDF><cc:Work
         rdf:about=""><dc:format>image/svg+xml</dc:format><dc:type
           rdf:resource="http://purl.org/dc/dcmitype/StillImage" /></cc:Work></rdf:RDF></metadata><defs
     id="defs18" /><sodipodi:namedview
     pagecolor="#ffffff"
     bordercolor="#666666"
     borderopacity="1"
     objecttolerance="10"
     gridtolerance="10"
     guidetolerance="10"
     inkscape:pageopacity="0"
     inkscape:pageshadow="2"
     inkscape:window-width="1853"
     inkscape:window-height="1013"
     id="namedview16"
     showgrid="false"
     inkscape:zoom="6.312"
     inkscape:cx="10.857978"
     inkscape:cy="25.007006"
     inkscape:window-x="0"
     inkscape:window-y="0"
     inkscape:window-maximized="1"
     inkscape:current-layer="svg14" /><g
     id="g849"
     transform="matrix(0.31252339,0,0,0.31252339,-4.7697428,-3.12398)"><path
       d="m 62.45,27.04 -8.51,8.51 -4.51,-4.51 c -0.39,-0.39 -1.03,-0.39 -1.42,0 -0.39,0.39 -0.39,1.03 0,1.42 l 5.22,5.22 c 0.19,0.19 0.44,0.29 0.71,0.29 0.27,0 0.52,-0.11 0.71,-0.29 l 9.22,-9.22 c 0.39,-0.39 0.39,-1.03 0,-1.42 -0.4,-0.39 -1.03,-0.39 -1.42,0 z"
       id="path2" /><path
       d="m 76.08,24.19 c 0.62,-1.75 0.34,-3.7 -0.76,-5.21 -1.09,-1.51 -2.89,-2.37 -4.72,-2.33 -1.6,0.07 -3.12,-1.03 -3.59,-2.61 -0.53,-1.78 -1.9,-3.19 -3.68,-3.77 -1.77,-0.57 -3.71,-0.24 -5.19,0.89 0,0 0,0 0,0 -1.3,1 -3.12,1 -4.43,0 -1.47,-1.13 -3.42,-1.46 -5.19,-0.89 -1.77,0.58 -3.14,1.98 -3.67,3.77 -0.47,1.58 -1.98,2.65 -3.59,2.61 -1.87,-0.04 -3.63,0.82 -4.72,2.33 -1.09,1.51 -1.38,3.45 -0.76,5.21 0.55,1.55 -0.02,3.28 -1.37,4.22 -1.53,1.05 -2.45,2.8 -2.45,4.66 0,1.86 0.92,3.6 2.45,4.66 1.36,0.93 1.92,2.66 1.37,4.22 -0.62,1.76 -0.34,3.7 0.76,5.21 1.09,1.51 2.86,2.37 4.72,2.33 1.61,-0.06 3.12,1.03 3.59,2.61 0.53,1.78 1.9,3.19 3.67,3.77 0.57,0.19 1.16,0.28 1.75,0.28 1.23,0 2.44,-0.4 3.44,-1.17 1.31,-1 3.13,-1 4.43,0 1.48,1.13 3.42,1.47 5.19,0.89 1.77,-0.58 3.14,-1.98 3.67,-3.77 0.47,-1.58 1.98,-2.66 3.59,-2.61 1.82,0.03 3.63,-0.82 4.72,-2.33 1.09,-1.51 1.38,-3.45 0.76,-5.21 -0.55,-1.55 0.01,-3.28 1.37,-4.22 1.53,-1.06 2.45,-2.8 2.45,-4.66 0,-1.86 -0.92,-3.6 -2.45,-4.66 -1.34,-0.94 -1.91,-2.67 -1.36,-4.22 z m 0.23,5.87 c 1,0.69 1.58,1.79 1.58,3 0,1.22 -0.58,2.31 -1.58,3 -2.1,1.45 -2.98,4.14 -2.13,6.54 0.41,1.15 0.23,2.37 -0.49,3.36 -0.72,0.98 -1.86,1.55 -3.04,1.5 -2.54,-0.05 -4.84,1.6 -5.57,4.04 -0.35,1.17 -1.21,2.05 -2.37,2.43 -1.15,0.38 -2.38,0.17 -3.34,-0.57 -2.03,-1.55 -4.86,-1.55 -6.88,0 -0.97,0.74 -2.19,0.95 -3.34,0.57 -1.16,-0.38 -2.02,-1.26 -2.37,-2.43 -0.71,-2.4 -2.93,-4.05 -5.42,-4.05 -0.05,0 -0.1,0 -0.15,0 -1.25,0.04 -2.33,-0.52 -3.04,-1.5 -0.71,-0.98 -0.89,-2.21 -0.49,-3.36 0.85,-2.41 -0.03,-5.1 -2.13,-6.54 -1,-0.69 -1.58,-1.79 -1.58,-3 0,-1.22 0.58,-2.31 1.58,-3 2.1,-1.45 2.98,-4.14 2.13,-6.54 -0.41,-1.15 -0.23,-2.37 0.49,-3.36 0.72,-0.99 1.8,-1.55 3.04,-1.5 2.52,0.02 4.84,-1.6 5.57,-4.04 0.35,-1.17 1.21,-2.05 2.37,-2.43 1.16,-0.38 2.38,-0.17 3.34,0.57 2.03,1.55 4.85,1.55 6.88,0 0.97,-0.74 2.19,-0.95 3.34,-0.57 1.16,0.38 2.02,1.26 2.37,2.43 0.71,2.4 2.93,4.05 5.42,4.05 0.05,0 0.1,0 0.15,0 1.18,-0.05 2.33,0.52 3.04,1.5 0.71,0.99 0.89,2.21 0.49,3.36 -0.85,2.4 0.03,5.1 2.13,6.54 z"
       id="path4" /><path
       d="m 55.94,17.46 c -8.6,0 -15.6,7 -15.6,15.6 0,8.6 7,15.6 15.6,15.6 8.6,0 15.6,-7 15.6,-15.6 0,-8.6 -7,-15.6 -15.6,-15.6 z m 0,29.2 c -7.49,0 -13.59,-6.1 -13.59,-13.59 0,-7.5 6.1,-13.59 13.59,-13.59 7.5,0 13.59,6.1 13.59,13.59 0,7.49 -6.09,13.59 -13.59,13.59 z"
       id="path6" /><path
       d="m 16.8,68.72 11.5,-7.1 c 1.2,-0.74 2.69,-0.83 4,-0.22 4.01,1.85 9.68,4.08 14.23,5.87 2.31,0.91 4.36,1.71 5.81,2.32 1.28,0.55 2.62,1.08 3.99,1.59 0.93,0.36 1.81,0.69 2.1,1.42 0.16,0.41 0.12,0.85 -0.13,1.32 -0.39,0.72 -1.21,1.31 -2.03,1.48 -1.14,0.23 -2.38,-0.11 -3.69,-0.46 -0.38,-0.1 -0.75,-0.2 -1.11,-0.29 -1.91,-0.46 -8.19,-1.92 -10.41,-2.32 -0.54,-0.1 -1.07,0.26 -1.17,0.81 -0.1,0.55 0.27,1.07 0.81,1.17 2.06,0.37 8.12,1.78 10.3,2.3 0.35,0.08 0.7,0.18 1.05,0.27 1.06,0.29 2.23,0.6 3.43,0.6 0.39,0 0.79,-0.03 1.18,-0.11 1.42,-0.29 2.72,-1.24 3.4,-2.49 0.51,-0.93 0.59,-1.95 0.27,-2.87 3.19,-1.79 6.66,-3.82 9.75,-5.65 2.09,-1.24 3.96,-2.34 5.3,-3.1 1.33,-0.71 2.57,-1.44 3.77,-2.19 0.99,-0.59 1.69,-0.95 2.38,-0.74 0.42,0.12 0.74,0.42 0.95,0.9 0.33,0.75 0.3,1.77 -0.03,2.44 -1.17,1.49 -20.24,15.24 -28.39,21.12 l -1.66,1.19 c -2.29,1.65 -5.09,2.32 -7.88,1.87 L 16.47,83.38 c -0.56,-0.09 -1.06,0.28 -1.15,0.83 -0.09,0.55 0.29,1.06 0.83,1.15 l 28.05,4.47 c 0.68,0.11 1.35,0.16 2.02,0.16 2.63,0 5.19,-0.82 7.36,-2.39 l 1.65,-1.19 C 76.36,71.2 83.66,65.71 84.21,64.66 c 0.65,-1.31 0.7,-2.93 0.12,-4.24 -0.45,-1.02 -1.25,-1.74 -2.21,-2.01 -1.58,-0.49 -2.91,0.3 -4.1,1.01 -1.09,0.69 -2.29,1.39 -3.6,2.09 -1.37,0.78 -3.24,1.88 -5.35,3.12 -3.16,1.86 -6.71,3.95 -9.94,5.76 -0.66,-0.5 -1.43,-0.83 -2.15,-1.11 -1.29,-0.48 -2.6,-1 -3.85,-1.54 -1.48,-0.62 -3.54,-1.43 -5.86,-2.34 -4.53,-1.78 -10.17,-4 -14.13,-5.82 -1.92,-0.89 -4.12,-0.76 -5.9,0.34 l -11.5,7.1 c -0.47,0.29 -0.62,0.91 -0.33,1.38 0.3,0.47 0.92,0.61 1.39,0.32 z"
       id="path8" /></g></svg>
