<?xml version="1.0" encoding="UTF-8" standalone="no"?>
<svg
   xmlns:dc="http://purl.org/dc/elements/1.1/"
   xmlns:cc="http://creativecommons.org/ns#"
   xmlns:rdf="http://www.w3.org/1999/02/22-rdf-syntax-ns#"
   xmlns:svg="http://www.w3.org/2000/svg"
   xmlns="http://www.w3.org/2000/svg"
   xmlns:sodipodi="http://sodipodi.sourceforge.net/DTD/sodipodi-0.dtd"
   xmlns:inkscape="http://www.inkscape.org/namespaces/inkscape"
   viewBox="0 0 28.99831 25"
   x="0px"
   y="0px"
   version="1.1"
   id="svg12"
   sodipodi:docname="root.svg"
   width="28.99831"
   height="25"
   inkscape:version="1.0.2 (1.0.2+r75+1)">
  <metadata
     id="metadata18">
    <rdf:RDF>
      <cc:Work
         rdf:about="">
        <dc:format>image/svg+xml</dc:format>
        <dc:type
           rdf:resource="http://purl.org/dc/dcmitype/StillImage" />
      </cc:Work>
    </rdf:RDF>
  </metadata>
  <defs
     id="defs16" />
  <sodipodi:namedview
     pagecolor="#ffffff"
     bordercolor="#666666"
     borderopacity="1"
     objecttolerance="10"
     gridtolerance="10"
     guidetolerance="10"
     inkscape:pageopacity="0"
     inkscape:pageshadow="2"
     inkscape:window-width="1853"
     inkscape:window-height="1013"
     id="namedview14"
     showgrid="false"
     inkscape:zoom="7.6250303"
     inkscape:cx="14.514001"
     inkscape:cy="22.847495"
     inkscape:window-x="0"
     inkscape:window-y="0"
     inkscape:window-maximized="1"
     inkscape:current-layer="svg12" />
  <g
     data-name="Layer 2"
     id="g6"
     transform="matrix(0.30200528,0,0,0.30200528,0.00738477,0)">
    <g
       data-name="Layer 1"
       id="g4">
      <path
         d="m 30.29,82.78 a 1,1 0 0 1 -0.44,-0.1 c -0.33,-0.16 -7.37,-3.79 -8.12,-20.14 -1.92,4 -5.3,9.38 -10.38,11.36 a 1,1 0 0 1 -1.09,-1.62 29.11,29.11 0 0 0 6.29,-11.66 31.09,31.09 0 0 1 1.69,-5.43 38.62,38.62 0 0 1 4,-7.37 40.5,40.5 0 0 0 4,-7 c 2.29,-4.95 5.15,-11 7.39,-15.43 a 18.62,18.62 0 0 1 -6,2.83 C 27,30.73 24.53,39.43 19.24,45.4 a 53.42,53.42 0 0 0 -6.58,8.85 28.59,28.59 0 0 0 -3.64,9 1,1 0 0 1 -1,0.82 H 8 A 1,1 0 0 1 7,63.24 c -0.06,-0.39 -1.48,-9.52 6.16,-19.89 0,-0.07 3.92,-5.07 4.93,-9.32 A 15.25,15.25 0 0 1 20.2,29.2 C 16.14,29.15 6.5,29.54 1.72,34.45 A 1,1 0 0 1 0.52,34.62 1,1 0 0 1 0,33.51 C 0.21,32.75 2.48,26 24.66,21.07 c 0.07,0 11.45,-3.2 14.45,-12 V 1 a 1,1 0 0 1 1,-1 c 0.7,0 6.83,0 8.92,3 a 1,1 0 0 1 0.16,0.74 30.63,30.63 0 0 0 -0.42,5.85 24.24,24.24 0 0 0 7.66,3.9 C 61.16,15 69,16.07 79.31,12.63 a 1,1 0 0 1 1,0.21 1,1 0 0 1 0.3,1 10.79,10.79 0 0 1 -8.19,7.39 9.88,9.88 0 0 1 3.19,4.3 c 0.31,1.17 1.12,3 1.91,3.31 a 1,1 0 0 1 -0.36,1.93 v 0 c -0.24,0 -5.9,-0.07 -8.28,-4.87 A 19.62,19.62 0 0 0 64.7,21.16 40.39,40.39 0 0 1 53.22,19.57 C 58,26 72,40.75 94.77,35.29 a 1,1 0 0 1 1.12,1.42 12.26,12.26 0 0 1 -10,6.2 55.86,55.86 0 0 1 5.41,17.7 1,1 0 0 1 -1.93,0.49 c 0,-0.15 -5.95,-14.83 -13.81,-19.76 h -1.24 c 0.91,3.62 2.83,14.09 -2,24.68 a 1,1 0 0 1 -1.91,-0.48 c 0,-0.18 1,-18.15 -4.4,-26.05 -2,-0.67 -12,-4.37 -18.11,-12.08 0.33,2 0.74,4.5 1.19,6.91 a 89.41,89.41 0 0 1 0.43,31.31 c -0.09,0.56 -0.19,1.14 -0.3,1.71 0,0 -0.78,5.31 0.89,8.47 A 1.0010245,1.0010245 0 0 1 48.5,77 c -0.19,-0.18 -4.61,-4.46 -4,-18.37 0,-0.16 1,-12.5 -2.12,-21.58 a 37.06,37.06 0 0 1 -1.62,-7 c 0,-0.38 -0.09,-0.75 -0.12,-1.09 C 35.76,35 22.41,55 31.24,81.46 a 1,1 0 0 1 -0.95,1.32 z M 22.7,56.35 h 0.16 a 1,1 0 0 1 0.84,1 c -0.39,12 2.37,18.13 4.55,21.07 C 20,47.4 40.59,25.89 40.81,25.67 a 1,1 0 0 1 1.71,0.76 17,17 0 0 0 0.19,3.37 34.42,34.42 0 0 0 1.53,6.61 c 3.21,9.48 2.26,21.83 2.22,22.35 a 42.46,42.46 0 0 0 0.59,9.74 c 0.06,-0.85 0.14,-1.42 0.15,-1.49 0.11,-0.6 0.21,-1.16 0.3,-1.71 A 87.59,87.59 0 0 0 47.08,34.69 C 46,29 45.15,23.07 45.14,23 A 1,1 0 0 1 47,22.43 C 52.25,33 66.74,37.65 66.89,37.69 a 1,1 0 0 1 0.5,0.37 c 3.94,5.42 4.87,15.11 5,21.46 a 38,38 0 0 0 -0.37,-18.87 1,1 0 0 1 0.14,-0.9 1,1 0 0 1 0.81,-0.41 h 2.85 a 1,1 0 0 1 0.51,0.14 c 4.7,2.82 8.65,8.65 11.3,13.44 a 50.65,50.65 0 0 0 -4.32,-10.55 1,1 0 0 1 1,-1.5 9.84,9.84 0 0 0 8.34,-3.09 C 64.18,43 49.7,18 49.56,17.73 a 1,1 0 0 1 1.38,-1.35 c 4.93,2.93 13.94,2.77 14,2.76 a 1.11,1.11 0 0 1 0.57,0.16 20.47,20.47 0 0 1 5.06,5.56 6.75,6.75 0 0 0 3.91,3.38 11.74,11.74 0 0 1 -0.82,-2.19 c -0.59,-2 -3.41,-4.08 -4.44,-4.71 a 1,1 0 0 1 -0.45,-1.12 1,1 0 0 1 0.95,-0.73 c 4.72,-0.07 7,-2.52 8.11,-4.31 -19.58,5.63 -30.26,-3.92 -30.72,-4.35 a 1.08,1.08 0 0 1 -0.32,-0.59 27,27 0 0 1 0.32,-6.39 c -1.24,-1.29 -4.22,-1.73 -6,-1.83 v 7.24 a 1.12,1.12 0 0 1 0,0.31 C 37.8,19.49 25.66,22.88 25.14,23 17.22,24.77 12,26.75 8.53,28.54 a 43.69,43.69 0 0 1 13.7,-1.26 1,1 0 0 1 0.69,1.63 l -0.41,0.51 A 12.74,12.74 0 0 0 20.1,34.54 C 19,39.21 15,44.38 14.81,44.6 A 30.32,30.32 0 0 0 9.56,55.8 c 0.42,-0.83 0.87,-1.68 1.37,-2.55 a 56.94,56.94 0 0 1 6.82,-9.17 c 5.76,-6.49 8.08,-16.86 8.1,-17 a 1,1 0 0 1 0.92,-0.79 c 2.75,-0.16 7.6,-3.75 9.24,-5.12 a 1,1 0 0 1 1.5,1.27 C 35.2,26.39 30.62,36.15 28.1,41.62 a 42.5,42.5 0 0 1 -4.22,7.38 36.16,36.16 0 0 0 -3.8,7 29.32,29.32 0 0 0 -1.58,5.1 26.82,26.82 0 0 1 -3.11,7.55 c 4.25,-4.59 6.32,-11.47 6.35,-11.56 a 1,1 0 0 1 0.96,-0.74 z"
         id="path2" />
    </g>
  </g>
</svg>
