<?xml version="1.0" encoding="UTF-8" standalone="no"?>
<svg
   xmlns:dc="http://purl.org/dc/elements/1.1/"
   xmlns:cc="http://creativecommons.org/ns#"
   xmlns:rdf="http://www.w3.org/1999/02/22-rdf-syntax-ns#"
   xmlns:svg="http://www.w3.org/2000/svg"
   xmlns="http://www.w3.org/2000/svg"
   xmlns:sodipodi="http://sodipodi.sourceforge.net/DTD/sodipodi-0.dtd"
   xmlns:inkscape="http://www.inkscape.org/namespaces/inkscape"
   height="25"
   viewBox="0 -960 500 500"
   width="25"
   version="1.1"
   id="svg4"
   sodipodi:docname="search.svg"
   inkscape:version="1.0.2 (1.0.2+r75+1)">
  <metadata
     id="metadata10">
    <rdf:RDF>
      <cc:Work
         rdf:about="">
        <dc:format>image/svg+xml</dc:format>
        <dc:type
           rdf:resource="http://purl.org/dc/dcmitype/StillImage" />
      </cc:Work>
    </rdf:RDF>
  </metadata>
  <defs
     id="defs8" />
  <sodipodi:namedview
     pagecolor="#ffffff"
     bordercolor="#666666"
     borderopacity="1"
     objecttolerance="10"
     gridtolerance="10"
     guidetolerance="10"
     inkscape:pageopacity="0"
     inkscape:pageshadow="2"
     inkscape:window-width="1853"
     inkscape:window-height="1013"
     id="namedview6"
     showgrid="false"
     inkscape:zoom="16.4375"
     inkscape:cx="12.5"
     inkscape:cy="12.55"
     inkscape:window-x="0"
     inkscape:window-y="0"
     inkscape:window-maximized="1"
     inkscape:current-layer="svg4" />
  <path
     d="M 469.44444,-460 286.80556,-642.63889 q -20.83334,18.05556 -48.58264,28.125 -27.74931,10.06945 -59.05625,10.06945 -75.1125,0 -127.13959,-52.08334 Q 0,-708.61111 0,-782.22222 0,-855.83333 52.08333,-907.91667 104.16667,-960 178.125,-960 q 73.95833,0 125.69444,52.08333 51.73612,52.08334 51.73612,125.79861 0,29.75695 -9.72223,57.53473 -9.72222,27.77777 -29.16666,52.08333 L 500,-490.55556 Z M 178.47222,-646.11111 q 56.42361,0 95.92014,-39.93056 39.49653,-39.93055 39.49653,-96.18055 0,-56.25 -39.49653,-96.18056 -39.49653,-39.93055 -95.92014,-39.93055 -57.00208,0 -96.90416,39.93055 -39.90139,39.93056 -39.90139,96.18056 0,56.25 39.90139,96.18055 39.90208,39.93056 96.90416,39.93056 z"
     id="path2"
     style="stroke-width:0.694444" />
</svg>
