<?xml version="1.0" encoding="UTF-8" standalone="no"?>
<svg
   xmlns:dc="http://purl.org/dc/elements/1.1/"
   xmlns:cc="http://creativecommons.org/ns#"
   xmlns:rdf="http://www.w3.org/1999/02/22-rdf-syntax-ns#"
   xmlns:svg="http://www.w3.org/2000/svg"
   xmlns="http://www.w3.org/2000/svg"
   xmlns:sodipodi="http://sodipodi.sourceforge.net/DTD/sodipodi-0.dtd"
   xmlns:inkscape="http://www.inkscape.org/namespaces/inkscape"
   version="1.1"
   x="0px"
   y="0px"
   viewBox="0 0 16.365 24.999352"
   id="svg10"
   sodipodi:docname="sprout.svg"
   width="16.365"
   height="24.999352"
   inkscape:version="1.0.2 (1.0.2+r75+1)">
  <metadata
     id="metadata16">
    <rdf:RDF>
      <cc:Work
         rdf:about="">
        <dc:format>image/svg+xml</dc:format>
        <dc:type
           rdf:resource="http://purl.org/dc/dcmitype/StillImage" />
      </cc:Work>
    </rdf:RDF>
  </metadata>
  <defs
     id="defs14" />
  <sodipodi:namedview
     pagecolor="#ffffff"
     bordercolor="#666666"
     borderopacity="1"
     objecttolerance="10"
     gridtolerance="10"
     guidetolerance="10"
     inkscape:pageopacity="0"
     inkscape:pageshadow="2"
     inkscape:window-width="1853"
     inkscape:window-height="1013"
     id="namedview12"
     showgrid="false"
     inkscape:zoom="6.312"
     inkscape:cx="8.1825004"
     inkscape:cy="24.999668"
     inkscape:window-x="0"
     inkscape:window-y="0"
     inkscape:window-maximized="1"
     inkscape:current-layer="svg10" />
  <g
     transform="matrix(0.29058597,0,0,0.29058597,-6.3467986,-278.77271)"
     id="g4">
    <path
       style="color:#000000;text-indent:0;text-transform:none;direction:ltr;baseline-shift:baseline;enable-background:accumulate"
       d="m 70.812457,959.44006 c -11.3053,4.05611 -18.3759,8.81516 -22.5937,13.78125 -0.1757,0.20693 -0.2717,0.41744 -0.4375,0.625 -9.1063,-5.18471 -18.9062,-5.09375 -18.9062,-5.09375 -0.4291,0.0132 -0.8305,0.33432 -0.9376,0.75 -4.1421,16.52971 1.3459,25.44876 7.9688,29.875 5.9344,3.96614 11.9485,4.36994 13.2812,4.43754 0,0.042 0,0.083 0,0.125 v 24.125 c -11.5451,0.287 -21.6416,6.4981 -27.2187,15.7812 -0.3766,0.6008 0.1346,1.5287 0.8437,1.5313 h 54.375 c 0.7091,0 1.2204,-0.9304 0.8438,-1.5313 -5.5255,-9.1805 -15.4486,-15.368 -26.8438,-15.7812 v -23.75 c 1.5095,0.049 8.9406,0.1627 15.6876,-4.68754 3.7296,-2.68115 6.9676,-6.90029 8.2812,-13.28125 1.3136,-6.38095 0.7381,-14.88132 -3.0312,-26.28125 -0.3882,-0.76575 -0.6357,-0.81443 -1.3126,-0.625 z m -1.6562,2.84375 -6.5,13.40625 -2.8125,-4.1875 c -0.2945,-0.43361 -0.957,-0.56017 -1.3906,-0.26565 -0.4337,0.29453 -0.5602,0.95704 -0.2657,1.39065 l 3.4688,5.125 -3.1562,6.53125 -5.1563,-6.59375 c -0.2857,-0.49221 -1.0312,-0.63652 -1.48,-0.28648 -0.4488,0.35004 -0.4903,1.10826 -0.082,1.50523 l 5.75,7.40625 -3.125,6.4375 -3.4062,-5.0625 c -0.2945,-0.43361 -0.957,-0.56017 -1.3906,-0.26565 -0.4337,0.29453 -0.5602,0.95704 -0.2657,1.39065 l 4.0625,6 -3.25,6.75004 c -1.1561,-1.4469 -4.9888,-6.48862 -5.2812,-13.68754 -0.169,-4.15722 0.9629,-8.73771 4.875,-13.34375 3.6074,-4.24736 9.799,-8.49363 19.4062,-12.25 z m 1.75,0.90625 c 2.944,9.85019 3.4339,17.30286 2.3125,22.75 -1.2184,5.91825 -4.1523,9.63348 -7.5313,12.0625 -5.5977,4.02414 -11.4459,4.27304 -13.6562,4.28124 l 3.25,-6.71874 6.9688,-0.46875 c 0.5236,-0.0327 0.9702,-0.5389 0.9375,-1.0625 -0.033,-0.52359 -0.5389,-0.97022 -1.0625,-0.9375 l -5.875,0.4375 3,-6.21875 9.5312,-0.75 c 0.5237,-0.0408 0.963,-0.55443 0.9222,-1.07812 -0.041,-0.52368 -0.5547,-0.96291 -1.0784,-0.92188 l -8.3438,0.65625 3.1875,-6.59375 6.125,-0.4375 c 0.5237,-0.0408 0.963,-0.55448 0.9221,-1.07817 -0.041,-0.52369 -0.5547,-0.96289 -1.0784,-0.92183 l -4.9687,0.34375 z m -41.1875,7.65625 c 1.1547,0.005 9.0029,0.19275 16.9063,4.625 -2.867,4.25471 -3.9084,8.57077 -3.75,12.46875 0.2735,6.73397 3.1135,11.19251 4.9062,13.65624 -2.4022,-0.2836 -6.3896,-0.9608 -10.75,-3.87499 -5.936,-3.96715 -10.9086,-11.50089 -7.3125,-26.875 z m 20.2813,59.15629 c 10.4976,0 19.5882,5.354 25.125,13.375 h -50.25 c 5.5294,-8.0179 14.6388,-13.375 25.125,-13.375 z"
       fill-opacity="1"
       stroke="none"
       marker="none"
       visibility="visible"
       display="inline"
       overflow="visible"
       id="path2" />
  </g>
</svg>
