<?xml version="1.0" encoding="UTF-8" standalone="no"?>
<svg
   version="1.1"
   x="0px"
   y="0px"
   viewBox="0 0 100 100"
   xml:space="preserve"
   id="svg2"
   sodipodi:docname="tree_2.svg"
   inkscape:version="1.3.2 (1:1.3.2+202311252150+091e20ef0f)"
   xmlns:inkscape="http://www.inkscape.org/namespaces/inkscape"
   xmlns:sodipodi="http://sodipodi.sourceforge.net/DTD/sodipodi-0.dtd"
   xmlns="http://www.w3.org/2000/svg"
   xmlns:svg="http://www.w3.org/2000/svg"><defs
     id="defs2" /><sodipodi:namedview
     id="namedview2"
     pagecolor="#ffffff"
     bordercolor="#000000"
     borderopacity="0.25"
     inkscape:showpageshadow="2"
     inkscape:pageopacity="0.0"
     inkscape:pagecheckerboard="0"
     inkscape:deskcolor="#d1d1d1"
     inkscape:zoom="6.528"
     inkscape:cx="50.015319"
     inkscape:cy="62.5"
     inkscape:window-width="1842"
     inkscape:window-height="1016"
     inkscape:window-x="78"
     inkscape:window-y="27"
     inkscape:window-maximized="1"
     inkscape:current-layer="svg2" /><path
     d="M91.745,26.617c-1.372-1.372-3.305-2.098-5.584-2.098c-5.194,0-12.163,3.743-18.187,9.767  c-8.435,8.435-11.845,17.98-8.387,22.898l-6.877,6.876V48.854c5.092-2.257,8.673-10.792,8.673-21.623  C61.384,14.557,56.49,5,50.001,5c-6.492,0-11.388,9.558-11.388,22.232c0,10.833,3.583,19.367,8.677,21.624V64.82l-7.221-7.219  c3.984-4.776,0.644-14.629-8.042-23.315c-6.024-6.024-12.992-9.767-18.186-9.767c-2.281,0-4.213,0.726-5.584,2.098  c-4.591,4.59-1.294,14.809,7.667,23.769c6.021,6.022,12.99,9.764,18.184,9.764c0.27,0,0.519-0.043,0.778-0.064l12.404,12.4v19.803  c0,1.498,1.214,2.711,2.711,2.711c1.496,0,2.71-1.213,2.71-2.711V71.728L64.409,60.03c0.479,0.072,0.969,0.12,1.484,0.12  c5.19,0,12.157-3.742,18.181-9.764C93.037,41.425,96.334,31.206,91.745,26.617z"
     id="path1" /></svg>
