<?xml version="1.0" encoding="UTF-8" standalone="no"?>
<svg
   version="1.1"
   x="0px"
   y="0px"
   viewBox="0 0 100 100"
   xml:space="preserve"
   id="svg2"
   sodipodi:docname="tree_4.svg"
   inkscape:version="1.3.2 (1:1.3.2+202311252150+091e20ef0f)"
   xmlns:inkscape="http://www.inkscape.org/namespaces/inkscape"
   xmlns:sodipodi="http://sodipodi.sourceforge.net/DTD/sodipodi-0.dtd"
   xmlns="http://www.w3.org/2000/svg"
   xmlns:svg="http://www.w3.org/2000/svg"><defs
     id="defs2" /><sodipodi:namedview
     id="namedview2"
     pagecolor="#ffffff"
     bordercolor="#000000"
     borderopacity="0.25"
     inkscape:showpageshadow="2"
     inkscape:pageopacity="0.0"
     inkscape:pagecheckerboard="0"
     inkscape:deskcolor="#d1d1d1"
     inkscape:zoom="6.528"
     inkscape:cx="50.015319"
     inkscape:cy="62.5"
     inkscape:window-width="1842"
     inkscape:window-height="1016"
     inkscape:window-x="78"
     inkscape:window-y="27"
     inkscape:window-maximized="1"
     inkscape:current-layer="svg2" /><path
     d="M79.645,29.354c-8.465,0-15.352,6.887-15.352,15.353c0,0.458,0.029,0.911,0.069,1.36L52.647,52.83V36.522  c7.205-1.26,12.704-7.547,12.704-15.108c0-8.466-6.887-15.353-15.352-15.353s-15.354,6.887-15.354,15.353  c0,7.561,5.501,13.849,12.707,15.108V52.83l-11.715-6.763c0.04-0.449,0.069-0.901,0.069-1.36c0-8.465-6.888-15.353-15.355-15.353  C11.887,29.354,5,36.242,5,44.707c0,8.467,6.887,15.355,15.352,15.355c6.09,0,11.348-3.572,13.828-8.725l13.173,7.604v32.352  c0,1.461,1.186,2.646,2.647,2.646c1.461,0,2.647-1.186,2.647-2.646V58.941l13.173-7.604c2.479,5.152,7.736,8.725,13.824,8.725  C88.111,60.063,95,53.174,95,44.707C95,36.242,88.111,29.354,79.645,29.354z"
     id="path1" /></svg>
