<?xml version="1.0" encoding="UTF-8" standalone="no"?>
<svg
   version="1.1"
   x="0px"
   y="0px"
   viewBox="0 0 100 100"
   xml:space="preserve"
   id="svg2"
   sodipodi:docname="tree_1.svg"
   inkscape:version="1.3.2 (1:1.3.2+202311252150+091e20ef0f)"
   xmlns:inkscape="http://www.inkscape.org/namespaces/inkscape"
   xmlns:sodipodi="http://sodipodi.sourceforge.net/DTD/sodipodi-0.dtd"
   xmlns="http://www.w3.org/2000/svg"
   xmlns:svg="http://www.w3.org/2000/svg"><defs
     id="defs2" /><sodipodi:namedview
     id="namedview2"
     pagecolor="#ffffff"
     bordercolor="#000000"
     borderopacity="0.25"
     inkscape:showpageshadow="2"
     inkscape:pageopacity="0.0"
     inkscape:pagecheckerboard="0"
     inkscape:deskcolor="#d1d1d1"
     inkscape:zoom="6.528"
     inkscape:cx="50.015319"
     inkscape:cy="62.5"
     inkscape:window-width="1842"
     inkscape:window-height="1016"
     inkscape:window-x="78"
     inkscape:window-y="27"
     inkscape:window-maximized="1"
     inkscape:current-layer="svg2" /><path
     d="M81.407,39.32c-2.473-2.474-5.762-3.836-9.26-3.836c-0.253,0-0.501,0.022-0.751,0.036c2.899-8.05,1.154-17.412-5.286-23.852  C61.812,7.368,56.092,5,50.004,5c-6.087,0-11.808,2.368-16.106,6.668c-6.44,6.44-8.186,15.802-5.287,23.853  c-0.25-0.015-0.499-0.037-0.752-0.037c-3.5,0-6.787,1.362-9.258,3.835c-2.474,2.471-3.835,5.76-3.835,9.259  c0,3.498,1.362,6.787,3.835,9.258c2.473,2.472,5.76,3.834,9.258,3.834c2.536,0,4.958-0.726,7.041-2.062l12.327,12.323v20.291  c0,1.534,1.244,2.778,2.778,2.778c1.533,0,2.778-1.244,2.778-2.778V71.152l11.858-11.858c2.185,1.536,4.777,2.375,7.507,2.375  c3.498,0,6.785-1.362,9.258-3.834C86.511,52.73,86.511,44.424,81.407,39.32z M47.226,64.074l-8.382-8.381  c1.351-2.074,2.083-4.492,2.101-7.025c1.988,0.861,4.098,1.429,6.281,1.693V64.074z M52.782,63.297V50.362  c2.181-0.263,4.291-0.831,6.278-1.693c0.015,2.341,0.649,4.576,1.809,6.54L52.782,63.297z"
     id="path1" /></svg>
