<?xml version="1.0" encoding="UTF-8" standalone="no"?>
<svg
   xmlns:dc="http://purl.org/dc/elements/1.1/"
   xmlns:cc="http://creativecommons.org/ns#"
   xmlns:rdf="http://www.w3.org/1999/02/22-rdf-syntax-ns#"
   xmlns:svg="http://www.w3.org/2000/svg"
   xmlns="http://www.w3.org/2000/svg"
   xmlns:sodipodi="http://sodipodi.sourceforge.net/DTD/sodipodi-0.dtd"
   xmlns:inkscape="http://www.inkscape.org/namespaces/inkscape"
   version="1.1"
   x="0px"
   y="0px"
   viewBox="0 0 20.065062 25"
   xml:space="preserve"
   id="svg10"
   sodipodi:docname="trees.svg"
   width="20.065062"
   height="25"
   inkscape:version="1.0.2 (1.0.2+r75+1)"><metadata
     id="metadata16"><rdf:RDF><cc:Work
         rdf:about=""><dc:format>image/svg+xml</dc:format><dc:type
           rdf:resource="http://purl.org/dc/dcmitype/StillImage" /></cc:Work></rdf:RDF></metadata><defs
     id="defs14" /><sodipodi:namedview
     pagecolor="#ffffff"
     bordercolor="#666666"
     borderopacity="1"
     objecttolerance="10"
     gridtolerance="10"
     guidetolerance="10"
     inkscape:pageopacity="0"
     inkscape:pageshadow="2"
     inkscape:window-width="1853"
     inkscape:window-height="1013"
     id="namedview12"
     showgrid="false"
     inkscape:zoom="6.312"
     inkscape:cx="9.907031"
     inkscape:cy="24.9995"
     inkscape:window-x="0"
     inkscape:window-y="0"
     inkscape:window-maximized="1"
     inkscape:current-layer="svg10" /><style
     type="text/css"
     id="style2">
	.st0{fill:none;stroke:#000000;stroke-width:2;stroke-linecap:round;stroke-linejoin:round;stroke-miterlimit:10;}
</style><path
     d="m 13.832015,2.884339 c -1.459982,0 -2.801528,0.508119 -3.864952,1.352171 C 8.940513,1.580293 7.283972,0 5.500869,0 2.41622,0 0,4.490256 0,10.222685 0,15.759803 2.254659,20.137248 5.188373,20.42912 v 3.945888 h -0.80124 c -0.172498,0 -0.312496,0.139686 -0.312496,0.312496 C 4.074637,24.860314 4.214635,25 4.387133,25 h 2.227159 c 0.172498,0 0.312497,-0.139686 0.312497,-0.312496 0,-0.17281 -0.139999,-0.312496 -0.312497,-0.312496 H 5.813365 V 20.42412 c 2.065599,-0.213123 3.877764,-2.523719 4.713379,-6.032425 0.846864,0.532493 1.828414,0.865614 2.882776,0.936863 v 9.046137 h -0.80124 c -0.172498,0 -0.312496,0.139686 -0.312496,0.312496 0,0.172811 0.139998,0.312497 0.312496,0.312497 h 2.22716 c 0.172498,0 0.312496,-0.139686 0.312496,-0.312497 0,-0.17281 -0.139998,-0.312496 -0.312496,-0.312496 h -0.800928 v -9.034887 c 3.342771,-0.108123 6.03055,-2.854027 6.03055,-6.222734 -3.13e-4,-3.43652 -2.796215,-6.232735 -6.233047,-6.232735 z M 5.813365,19.797565 V 17.59853 l 1.484669,-1.484669 c 0.122186,-0.122186 0.122186,-0.319683 0,-0.441869 -0.122186,-0.122186 -0.319684,-0.122186 -0.44187,0 L 5.813365,16.714791 V 14.859189 L 7.298034,13.37452 c 0.122186,-0.122186 0.122186,-0.319683 0,-0.441869 -0.122186,-0.122186 -0.319684,-0.122186 -0.44187,0 L 5.813365,13.97545 v -1.76779 c 0,-0.17281 -0.139998,-0.312496 -0.312496,-0.312496 -0.172498,0 -0.312496,0.139686 -0.312496,0.312496 v 1.76779 l -1.0428,-1.042799 c -0.122186,-0.122186 -0.319683,-0.122186 -0.441869,0 -0.122186,0.122186 -0.122186,0.319683 0,0.441869 l 1.484669,1.484669 v 1.855915 l -1.0428,-1.0428 c -0.122186,-0.122186 -0.319683,-0.122186 -0.441869,0 -0.122186,0.122186 -0.122186,0.319684 0,0.44187 l 1.484669,1.484669 v 2.199972 c -2.543406,-0.318746 -4.563381,-4.490881 -4.563381,-9.57613 0,-5.292434 2.187473,-9.597693 4.875877,-9.597693 1.559355,0 3.041837,1.514044 3.9662,4.050575 C 8.315834,5.807115 7.59928,7.379595 7.59928,9.117386 c 0,1.981538 0.932489,3.746203 2.378408,4.888376 -0.738741,3.341521 -2.350908,5.561493 -4.164323,5.791803 z M 14.0342,14.714816 v -1.79154 l 2.283721,-2.283721 c 0.122186,-0.122186 0.122186,-0.319684 0,-0.44187 -0.122186,-0.122186 -0.319683,-0.122186 -0.441869,0 L 14.0342,12.039537 V 9.117074 c 0,-0.172811 -0.139999,-0.312497 -0.312496,-0.312497 -0.172498,0 -0.312496,0.139686 -0.312496,0.312497 v 2.922463 l -1.841852,-1.841852 c -0.122186,-0.122186 -0.319684,-0.122186 -0.44187,0 -0.122186,0.122186 -0.122186,0.319684 0,0.44187 l 2.283722,2.283721 v 1.78029 C 10.514556,14.486069 8.224272,12.066724 8.224272,9.117074 c 0,-3.092462 2.515594,-5.607743 5.607743,-5.607743 3.092149,0 5.607742,2.515594 5.607742,5.607743 0,3.024337 -2.40747,5.490243 -5.405557,5.597742 z"
     id="path4"
     style="stroke-width:0.312496" /></svg>
