<?xml version="1.0" encoding="UTF-8" standalone="no"?>
<svg
   version="1.1"
   x="0px"
   y="0px"
   viewBox="0 0 100 100"
   xml:space="preserve"
   id="svg2"
   sodipodi:docname="tree_3.svg"
   inkscape:version="1.3.2 (1:1.3.2+202311252150+091e20ef0f)"
   xmlns:inkscape="http://www.inkscape.org/namespaces/inkscape"
   xmlns:sodipodi="http://sodipodi.sourceforge.net/DTD/sodipodi-0.dtd"
   xmlns="http://www.w3.org/2000/svg"
   xmlns:svg="http://www.w3.org/2000/svg"><defs
     id="defs2" /><sodipodi:namedview
     id="namedview2"
     pagecolor="#ffffff"
     bordercolor="#000000"
     borderopacity="0.25"
     inkscape:showpageshadow="2"
     inkscape:pageopacity="0.0"
     inkscape:pagecheckerboard="0"
     inkscape:deskcolor="#d1d1d1"
     inkscape:zoom="6.528"
     inkscape:cx="50.015319"
     inkscape:cy="65.104167"
     inkscape:window-width="1842"
     inkscape:window-height="1016"
     inkscape:window-x="78"
     inkscape:window-y="27"
     inkscape:window-maximized="1"
     inkscape:current-layer="svg2" /><path
     d="M78.666,68.942l-14.077-25.34h1.984c0.014,0.001,0.027,0.001,0.035,0c1.498,0,2.711-1.213,2.711-2.711  c0-0.586-0.186-1.129-0.502-1.573l-16.41-32.82C51.948,5.58,51.01,5,49.982,5s-1.966,0.58-2.425,1.499l-16.59,33.18  c-0.42,0.84-0.375,1.838,0.118,2.638c0.494,0.799,1.368,1.286,2.307,1.286h1.984l-14.27,25.687c-0.466,0.84-0.454,1.863,0.034,2.691  c0.487,0.827,1.376,1.336,2.336,1.336h23.795v18.973c0,1.497,1.214,2.711,2.711,2.711c1.497,0,2.711-1.214,2.711-2.711V73.316  h23.795c0.013,0.002,0.026,0,0.035,0c1.498,0,2.711-1.215,2.711-2.711C79.234,69.979,79.022,69.401,78.666,68.942z"
     id="path1" /></svg>
